# xmcd
#
# Track frame offsets:
#	150
#	11928
#	23485
#	33578
#	43675
#	55840
#	69630
#	80763
#	99190
#	115720
#	125130
#	136665
#	149698
#	159325
#	173240
#	184905
#	203960
#
# Disc length: 2899 seconds
#
# Revision: 0
# Processed by: cddbd v1.4PL0 Copyright (c) Steve Scherf et al.
# Submitted via: audiograbber 1.80.04
#
DISCID=ef0b5111
DTITLE=Various Artist - Country Music Hall Of Fame 20th Anniversary Collection (Vol 1 
DTITLE=of 3)
DYEAR=1900
DGENRE=
TTITLE0=Jack Greene - There Goes My Everything
TTITLE1=Wynn Stewart - It's Such A Pretty World Today
TTITLE2=Loretta Lynn - Fist City
TTITLE3=Merle Haggard - Mama Tried
TTITLE4=Tammy Wynette - Stand By Your Man
TTITLE5=Merle Haggard - Okie From Muskogee
TTITLE6=Conway Twitty - Hello Darlin'
TTITLE7=Johnny Cash - Sunday Mornin' Comin' Down
TTITLE8=Jeanne Pruett - Satin Sheets
TTITLE9=Charley Pride - Kiss An Angel Good Morning
TTITLE10=Donna Fargo - Happiest Girl In The Whole USA, The
TTITLE11=Carl Smith - Lord Knows I'm Drinking, The
TTITLE12=Tom T. Hall - I Love
TTITLE13=George Jones - Grand Tour,The
TTITLE14=Freddy Fender - Before The Next Teardrop Falls
TTITLE15=Marty Robbins - El Paso City
TTITLE16=Waylon Jennings and Willie Nelson - Good Hearted Woman
EXTD=
EXTT0=
EXTT1=
EXTT2=
EXTT3=
EXTT4=
EXTT5=
EXTT6=
EXTT7=
EXTT8=
EXTT9=
EXTT10=
EXTT11=
EXTT12=
EXTT13=
EXTT14=
EXTT15=
EXTT16=
PLAYORDER=
